<?xml version="1.0" encoding="UTF-8"?>
<svg width="4.5861mm" height="7.3378mm" version="1.1" viewBox="0 0 16.25 26" xmlns="http://www.w3.org/2000/svg" xmlns:cc="http://creativecommons.org/ns#" xmlns:dc="http://purl.org/dc/elements/1.1/" xmlns:rdf="http://www.w3.org/1999/02/22-rdf-syntax-ns#">
  <g transform="translate(-279.29 -480.08)">
  <g transform="matrix(1.625 0 0 1.625 269.54 -1199.1)" fill="#1899da" fill-opacity=".9">
   <path d="m11 1033.4c-0.97291 3.405-3.3544 6.3323-4.4043 8.6758-0.3674 0.6968-0.5957 1.4788-0.5957 2.3242 0 2.77 2.23 5 5 5 2.77 0 5-2.23 5-5 0-0.8454-0.2283-1.6274-0.5957-2.3242-1.0498-2.3435-3.4314-5.2708-4.4043-8.6758zm2.2832 7.7168c1.0377 0.7212 1.7168 1.9183 1.7168 3.2832 0 2.216-1.784 4-4 4-1.365 0-2.562-0.679-3.2832-1.7168 0.64705 0.4497 1.4321 0.7168 2.2832 0.7168 2.216 0 4-1.784 4-4 0-0.8511-0.26709-1.6362-0.7168-2.2832z" fill="#1899da" fill-opacity=".9"/>
  </g>
 </g>
</svg>
