<svg width="16" version="1.0" xmlns="http://www.w3.org/2000/svg" height="16" xmlns:xlink="http://www.w3.org/1999/xlink">
<defs id="defs782">
<linearGradient id="linearGradient7165">
<stop offset="0" style="stop-color:#464646" id="stop561"/>
<stop offset="1" style="stop-color:#0a0a0a" id="stop563"/>
</linearGradient>
<linearGradient gradientTransform="rotate(-90,-103.9366,601.4576)" xlink:href="#linearGradient3769" id="linearGradient6644" y1="1037.8942" x1="13.021" y2="1041.3942" gradientUnits="userSpaceOnUse" x2="12.521"/>
<linearGradient id="linearGradient3769">
<stop offset="0" style="stop-color:#fff" id="stop717"/>
<stop offset="1" style="stop-color:#fff;stop-opacity:0" id="stop719"/>
</linearGradient>
<linearGradient gradientTransform="matrix(1,0,0,-1,332.458,1535.3627)" xlink:href="#linearGradient3769" id="linearGradient6647" y1="1037.8522" x1="0" y2="1039.8522" gradientUnits="userSpaceOnUse" x2="0"/>
<linearGradient gradientTransform="rotate(90,449.43665,933.91565)" xlink:href="#linearGradient3769" id="linearGradient6650" y1="1037.8522" x1="0" y2="1041.3523" gradientUnits="userSpaceOnUse" x2="0.52100003"/>
<linearGradient gradientTransform="translate(188.95755,239)" xlink:href="#linearGradient7165" id="linearGradient6657" y1="-746.5" x1="156.54245" y2="-723.5" gradientUnits="userSpaceOnUse" x2="156.54245"/>
<linearGradient gradientTransform="translate(332.458,-553.3627)" xlink:href="#linearGradient3769" id="linearGradient6653" y1="1037.8522" x1="0" y2="1039.8522" gradientUnits="userSpaceOnUse" x2="0"/>
</defs>
<g id="checkbox-checked-normal" transform="matrix(1.2268036,0,0,1.2268036,-407.86064,-594.36057)">
<rect width="13.042" x="332.45798" y="-497.51047" height="13.021" style="fill:url(#linearGradient6657);color:#000" id="rect1236" transform="scale(1,-1)"/>
<path style="opacity:.2;fill:url(#linearGradient6653)" id="path1238" d="M 332.458,484.4895 H 345.5 l -2,2 h -9.042 z"/>
<path style="opacity:.23;fill:url(#linearGradient6650)" id="path1240" d="m 345.5,484.479 v 13.042 l -2,-2 v -9.042 z"/>
<path style="opacity:.25;fill:url(#linearGradient6647)" id="path1242" d="M 332.458,497.5105 H 345.5 l -2,-2 h -9.042 z"/>
<path style="opacity:.15;fill:url(#linearGradient6644)" id="path1244" d="m 332.458,497.521 v -13.042 l 2,2 v 9.0425 z"/>
<g id="g2838">
<path style="fill:#6e6e6e;color:#000" id="path1246" d="m 340.0591,487.6175 -1.0949,1.1129 -1.0796,-1.0931 c -0.6344,-0.63439 -1.63829,-0.65319 -2.27269,-0.0188 -0.6344,0.6344 -0.65494,1.67164 -0.0206,2.30603 l 1.1129,1.0949 -1.0931,1.0795 c -0.6344,0.63441 -0.65319,1.6383 -0.0189,2.2727 0.6344,0.63439 1.67165,0.65493 2.30604,0.0206 l 1.0949,-1.1129 1.0796,1.0931 c 0.6344,0.63439 1.63829,0.65319 2.27269,0.0188 0.6344,-0.63439 0.65494,-1.67164 0.0206,-2.30604 l -1.1129,-1.0949 1.0931,-1.0795 c 0.6344,-0.6344 0.6532,-1.63829 0.0188,-2.27269 -0.31719,-0.31721 -0.73039,-0.49465 -1.14429,-0.49466 -0.41391,0 -0.84444,0.15685 -1.16163,0.47404 z"/>
<path style="opacity:.6;fill:#fff;line-height:normal;color:#000" id="path1248" d="m 341.2164,488.0083 -2.2301,2.2489 -2.2474,-2.2582 c -0.11395,-0.12023 -0.27723,-0.1808 -0.44202,-0.16399 -0.47705,0.0367 -0.66906,0.6338 -0.30283,0.9417 l 2.2208,2.2287 -2.2301,2.2489 c -0.52642,0.53084 0.20935,1.28818 0.74962,0.74337 l 2.2301,-2.2489 2.2474,2.2582 c 0.49874,0.51616 1.27208,-0.23382 0.77146,-0.74815 l -2.2474,-2.2582 2.2301,-2.2489 c 0.54335,-0.54791 -0.24554,-1.25169 -0.74962,-0.74337 z"/>
</g>
</g>
</svg>
