<?xml version="1.0" encoding="UTF-8" standalone="no"?>
<svg
   xmlns:dc="http://purl.org/dc/elements/1.1/"
   xmlns:cc="http://creativecommons.org/ns#"
   xmlns:rdf="http://www.w3.org/1999/02/22-rdf-syntax-ns#"
   xmlns:svg="http://www.w3.org/2000/svg"
   xmlns="http://www.w3.org/2000/svg"
   xmlns:sodipodi="http://sodipodi.sourceforge.net/DTD/sodipodi-0.dtd"
   xmlns:inkscape="http://www.inkscape.org/namespaces/inkscape"
   inkscape:version="1.0 (4035a4fb49, 2020-05-01)"
   sodipodi:docname="arrow-right.svg"
   id="svg10"
   version="1.1"
   height="16"
   width="16">
  <metadata
     id="metadata16">
    <rdf:RDF>
      <cc:Work
         rdf:about="">
        <dc:format>image/svg+xml</dc:format>
        <dc:type
           rdf:resource="http://purl.org/dc/dcmitype/StillImage" />
      </cc:Work>
    </rdf:RDF>
  </metadata>
  <defs
     id="defs14" />
  <sodipodi:namedview
     inkscape:current-layer="svg10"
     inkscape:window-maximized="1"
     inkscape:window-y="24"
     inkscape:window-x="0"
     inkscape:cy="8"
     inkscape:cx="8"
     inkscape:zoom="36.6875"
     showgrid="false"
     id="namedview12"
     inkscape:window-height="1005"
     inkscape:window-width="1920"
     inkscape:pageshadow="2"
     inkscape:pageopacity="0"
     guidetolerance="10"
     gridtolerance="10"
     objecttolerance="10"
     borderopacity="1"
     bordercolor="#666666"
     pagecolor="#ffffff" />
  <g
     style="opacity:1;fill:#1a1a1a;fill-opacity:1"
     id="g8"
     fill="#2e3436"
     color="#000000">
    <path
       id="path2"
       overflow="visible"
       font-family="sans-serif"
       font-weight="400"
       style="line-height:normal;font-variant-ligatures:normal;font-variant-position:normal;font-variant-caps:normal;font-variant-numeric:normal;font-variant-alternates:normal;font-feature-settings:normal;text-indent:0;text-align:start;text-decoration:none;text-decoration-line:none;text-decoration-style:solid;text-decoration-color:#000000;text-transform:none;text-orientation:mixed;white-space:normal;shape-padding:0;isolation:auto;mix-blend-mode:normal;solid-color:#000000;solid-opacity:1;fill:#1a1a1a;fill-opacity:1;marker:none"
       d="M 6.707,2.293 5.293,3.707 9.586,8 5.293,12.293 6.707,13.707 12.414,8 Z" />
    <path
       id="path4"
       overflow="visible"
       style="fill:#1a1a1a;fill-opacity:1;marker:none"
       d="M 6,13 H 5 v 1 H 6 Z M 6,2 H 5 v 1 h 1 z" />
    <path
       id="path6"
       overflow="visible"
       style="fill:#1a1a1a;fill-opacity:1;marker:none"
       d="M 6,2 C 5.446,2 5,2.446 5,3 5,3.554 5.446,4 6,4 6.554,4 7,3.554 7,3 7,2.446 6.554,2 6,2 Z m 0,10 c -0.554,0 -1,0.446 -1,1 0,0.554 0.446,1 1,1 0.554,0 1,-0.446 1,-1 0,-0.554 -0.446,-1 -1,-1 z" />
  </g>
</svg>
