<svg enable-background="new" height="48" width="48" xmlns="http://www.w3.org/2000/svg"><g fill="#48b2f2" transform="matrix(1.5 0 0 1.5 -863.96 -1145.22)"><path d="m590.03 773.14c-.81437-.7694-1.389-1.7891-1.6253-2.8842s-.13329-2.261.29137-3.2978 1.1692-1.9399 2.1058-2.5546 2.0615-.93829 3.1816-.91531c1.0572.0217 2.1062.35108 2.986.9376.87979.58651 1.5874 1.4282 2.014 2.3956l9 2h-10.828c-.60283-.99501-1.6404-1.7158-2.7832-1.9336-.78578-.14973-1.6144-.0668-2.3549.23565-.74053.30246-1.3903.82337-1.8465 1.4804-.45626.65702-.71741 1.4478-.74215 2.2473-.0248.79953.187 1.6049.60176 2.2889z" fill="#2587fc"/><g transform="matrix(.12018 0 0 .12009 457.6 570.49)"><path d="m1109.8 1715.4-108.17-91.6c-10.659 11.017-16.771 26.308-16.642 41.636.13113 15.545 6.6868 30.939 17.804 41.806 11.117 10.867 26.656 17.071 42.2 16.849-8.5449-1.178-16.646-5.3565-22.56-11.636-5.9137-6.2794-9.5989-14.616-10.263-23.217-.6416-8.3148 1.5391-16.822 6.1015-23.803z" fill="#486ef2"/><path d="m1101.5 1740.3-108.17-33.309c-2.8906 11.007-2.0051 22.969 2.4749 33.43 4.4799 10.461 12.526 19.357 22.487 24.86 7.6018 4.2 16.277 6.4373 24.962 6.4373s17.36-2.2373 24.962-6.4373c-6.9916.631-14.137-.5277-20.571-3.3359-6.4339-2.8081-12.142-7.2597-16.434-12.815-4.9547-6.4144-7.9929-14.29-8.6296-22.37z"/></g><path d="m596.02 772.15c-.55774.65831-.92265 1.478-1.0386 2.333-.10946.8073-.00012 1.6321.21372 2.4182.21385.78612.53033 1.5398.84297 2.2922.31263.75231.62335 1.5089.8249 2.2983.20154.78936.29157 1.6178.15696 2.4213-.22515 1.3439-1.0819 2.5386-2.2001 3.3172-1.1183.77865-2.4787 1.164-3.8384 1.2528-1.7157.11205-3.4594-.23668-5-1l.0386 8 2-3.9785c2.6423.77198 5.5996.39253 7.9614-1.0215 1.1917-.71348 2.2386-1.6855 2.9692-2.8668s1.1352-2.5752 1.0694-3.9625c-.0937-1.9763-1.1012-3.7768-2.0659-5.5042-.96469-1.7274-1.9369-3.5578-1.9491-5.5363-.00095-.15462.004-.30927.015-.4635z" fill="#7997ff"/></g></svg>