<?xml version="1.0" encoding="UTF-8"?>
<svg width="48" height="48" enable-background="new" version="1.1" xmlns="http://www.w3.org/2000/svg" xmlns:cc="http://creativecommons.org/ns#" xmlns:dc="http://purl.org/dc/elements/1.1/" xmlns:rdf="http://www.w3.org/1999/02/22-rdf-syntax-ns#">
 <title>LXQt</title>
 <g transform="translate(-575.98 -747.49)">
  <flowRoot transform="translate(-249.23 -823.47)" fill="#000000" font-family="FontAwesome" letter-spacing="0px" word-spacing="0px" style="line-height:0.01%" xml:space="preserve"><flowRegion><rect x="927" y="1114" width="213" height="137"/></flowRegion><flowPara font-size="10px" style="line-height:1.25"> </flowPara></flowRoot>
  <g transform="matrix(1.5 0 0 1.5 -287.98 -397.73)" fill="#48b2f2">
   <path d="m590.03 773.14c-0.81437-0.7694-1.389-1.7891-1.6253-2.8842-0.2363-1.0951-0.13329-2.261 0.29137-3.2978s1.1692-1.9399 2.1058-2.5546 2.0615-0.93829 3.1816-0.91531c1.0572 0.0217 2.1062 0.35108 2.986 0.9376 0.87979 0.58651 1.5874 1.4282 2.014 2.3956l9 2h-10.828c-0.60283-0.99501-1.6404-1.7158-2.7832-1.9336-0.78578-0.14973-1.6144-0.0668-2.3549 0.23565-0.74053 0.30246-1.3903 0.82337-1.8465 1.4804-0.45626 0.65702-0.71741 1.4478-0.74215 2.2473-0.0248 0.79953 0.187 1.6049 0.60176 2.2889z"/>
   <g transform="matrix(.12018 0 0 .12009 457.6 570.49)">
    <path d="m1109.8 1715.4-108.17-91.6c-10.659 11.017-16.771 26.308-16.642 41.636 0.13113 15.545 6.6868 30.939 17.804 41.806 11.117 10.867 26.656 17.071 42.2 16.849-8.5449-1.178-16.646-5.3565-22.56-11.636-5.9137-6.2794-9.5989-14.616-10.263-23.217-0.6416-8.3148 1.5391-16.822 6.1015-23.803z"/>
    <path d="m1101.5 1740.3-108.17-33.309c-2.8906 11.007-2.0051 22.969 2.4749 33.43 4.4799 10.461 12.526 19.357 22.487 24.86 7.6018 4.2 16.277 6.4373 24.962 6.4373s17.36-2.2373 24.962-6.4373c-6.9916 0.631-14.137-0.5277-20.571-3.3359-6.4339-2.8081-12.142-7.2597-16.434-12.815-4.9547-6.4144-7.9929-14.29-8.6296-22.37z"/>
   </g>
   <path d="m596.02 772.15c-0.55774 0.65831-0.92265 1.478-1.0386 2.333-0.10946 0.8073-1.2e-4 1.6321 0.21372 2.4182 0.21385 0.78612 0.53033 1.5398 0.84297 2.2922 0.31263 0.75231 0.62335 1.5089 0.8249 2.2983 0.20154 0.78936 0.29157 1.6178 0.15696 2.4213-0.22515 1.3439-1.0819 2.5386-2.2001 3.3172-1.1183 0.77865-2.4787 1.164-3.8384 1.2528-1.7157 0.11205-3.4594-0.23668-5-1l0.0386 8 2-3.9785c2.6423 0.77198 5.5996 0.39253 7.9614-1.0215 1.1917-0.71348 2.2386-1.6855 2.9692-2.8668s1.1352-2.5752 1.0694-3.9625c-0.0937-1.9763-1.1012-3.7768-2.0659-5.5042-0.96469-1.7274-1.9369-3.5578-1.9491-5.5363-9.5e-4 -0.15462 4e-3 -0.30927 0.015-0.4635z"/>
  </g>
  <flowRoot transform="translate(-167.24 -710.92)" fill="#000000" font-family="FontAwesome" letter-spacing="0px" word-spacing="0px" style="line-height:0.01%" xml:space="preserve"><flowRegion><rect x="927" y="1114" width="213" height="137"/></flowRegion><flowPara font-size="10px" style="line-height:1.25"> </flowPara></flowRoot>
 </g>
</svg>
