<?xml version="1.0" encoding="UTF-8"?>
<svg width="32" height="32" version="1.0" xmlns="http://www.w3.org/2000/svg" xmlns:cc="http://creativecommons.org/ns#" xmlns:dc="http://purl.org/dc/elements/1.1/" xmlns:rdf="http://www.w3.org/1999/02/22-rdf-syntax-ns#" xmlns:xlink="http://www.w3.org/1999/xlink">
 <defs>
  <linearGradient id="linearGradient2190" x1="541.34" x2="606.91" y1="104.51" y2="303.14" gradientTransform="matrix(-.39377 0 0 .39375 978.35 416.98)" gradientUnits="userSpaceOnUse">
   <stop stop-color="#fff" stop-opacity="0" offset="0"/>
   <stop stop-color="#fff" stop-opacity=".27451" offset="1"/>
  </linearGradient>
 </defs>
 <g transform="translate(-309.52 -259.6)">
  <g transform="matrix(1.3474 0 0 1.3474 -632.88 -513.34)">
   <g transform="matrix(.125 0 0 .125 615.72 519.22)" fill-rule="evenodd">
    <path d="m764.75 435.62c-8.4571 20.735-12.613 32.848-22.028 52.966 5.7731 6.1195 11.889 14.689 23.397 22.737-9.9239-0.68414-21.785-8.2305-28.092-13.535-12.05 25.145-29.963 58.991-68.276 127.83 30.105-17.38 53.443-28.1 75.193-32.192-0.93052-4.011-1.4276-8.37-1.3916-12.896l0.0232-0.95093c0.47782-19.292 10.516-34.127 22.405-33.12 11.888 1.0073 21.143 17.469 20.665 36.761-0.09 3.6339-0.51248 7.1256-1.2292 10.367 21.516 4.2106 44.634 14.883 74.335 32.03-5.8573-10.784-11.104-18.54-16.096-27.798-7.8643-6.0954-14.105-11.577-32.795-24.572 11.501 2.9884 18.275 3.9957 24.693 7.8496-50.762-94.51-53.394-104.63-70.802-145.48z" fill="#1793d1"/>
    <path d="m818.23 548.55c-41.181-55.895-50.727-100.94-53.145-111.7 21.967 50.669 21.817 51.29 53.145 111.7z" fill="#fff" fill-opacity=".16568"/>
    <path d="m765.12 436.55c-1.0399 2.5565-2.1924 5.0588-3.1543 7.4219-1.0812 2.6558-2.1325 5.1217-3.1543 7.6074-1.0218 2.4858-1.9648 5.0275-2.9688 7.4219-1.004 2.3945-1.9411 4.6689-2.9688 7.0508-1.0276 2.3818-2.0616 4.7884-3.1543 7.2363-0.22169 0.52026-0.51535 0.95734-0.74218 1.4844-0.89081 1.9816-1.8212 4.0432-2.7832 6.123-1.1292 2.5271-2.2192 4.8166-3.5254 7.6074 5.7731 6.1195 11.871 14.774 23.379 22.822-9.9239-0.68414-21.711-8.2409-28.018-13.545-1.5369 3.1187-3.0562 6.5199-4.8242 10.02-1.0656 2.1093-2.3638 4.4091-3.5254 6.6797-0.75637 1.499-1.238 2.694-2.041 4.2676-0.0406 0.0788-0.14484 0.10655-0.18555 0.18555-1.0203 1.9796-4.2749 8.1305-7.6074 14.473-2.4992 4.769-4.8528 9.3444-7.793 14.844 24.06-13.573 50.098-32.971 97.227-16.143-2.3671-4.4832-4.4504-8.6644-6.4941-12.617-2.0437-3.9529-3.9888-7.6323-5.752-11.133-1.763-3.5004-3.4849-6.8935-5.0098-10.02-1.5249-3.126-2.9383-6.0765-4.2676-8.9062-1.3293-2.8297-2.5347-5.3671-3.7109-7.9785-1.1763-2.6114-2.2739-5.1364-3.3398-7.6074-1.0661-2.4712-1.9706-5.0132-2.9688-7.4219-0.56287-1.3582-1.118-2.7242-1.6699-4.082-0.41001-0.9604-0.88887-2.1876-1.2988-3.1543-2.9574-6.9736-6.0109-14.087-9.6484-22.637z" fill="url(#linearGradient2190)"/>
   </g>
  </g>
 </g>
</svg>
