<svg width="16" version="1.1" xmlns="http://www.w3.org/2000/svg" viewBox="0 0 16 16" height="16">
<g style="color:#bebebe">
<path style="fill:#fff" id="path8071" d="m 8,0 c -4.41828,0 -8,3.58172 -8,8 0,4.41828 3.58172,8 8,8 4.41828,0 8,-3.58172 8,-8 0,-4.41828 -3.58172,-8 -8,-8 Z "/>
<path style="fill:#323232" id="path6" d="m 8,2 c 3.31371,0 6,2.68629 6,6 0,3.31371 -2.68629,6 -6,6 -3.31371,0 -6,-2.68629 -6,-6 0,-3.31371 2.68629,-6 6,-6 Z "/>
<path style="fill:#fff" id="path8" d="M 7,4 7,8 4,8 8,12 12,8 9,8 9,4 Z"/>
</g>
</svg>
