<svg width="16" version="1.1" xmlns="http://www.w3.org/2000/svg" viewBox="0 0 16.000001 16.000001" height="16">
<path style="fill:#dedede" d="m 8,0 c -4.42349,0 -8,3.5765 -8,8 -6.26903e-16,4.42349 3.57652,8 8,8 4.42349,0 8,-3.57652 8,-8 0,-4.4235 -3.57652,-8 -8,-8 Z  m -3.4439,4.5561 h 1.14798 c 0.011905,-0.0001378 0.023866,-0.0005281 0.035874,0 0.292679,0.012857 0.585322,0.147608 0.789238,0.358744 l 1.4709,1.4709 1.5067,-1.4709 c 0.304933,-0.26461 0.512772,-0.350708 0.789238,-0.358744 h 1.14798 v 1.14798 c 0,0.328862 -0.03942,0.632136 -0.286995,0.860987 l -1.4709,1.4709 1.435,1.435 c 0.216037,0.216016 0.322861,0.520552 0.32287,0.825112 v 1.14798 h -1.14798 c -0.304561,-1.2e-05 -0.609103,-0.106877 -0.825112,-0.32287 l -1.4709,-1.4709 -1.4709,1.4709 c -0.216009,0.216039 -0.520564,0.32287 -0.825112,0.32287 h -1.14798 v -1.14798 c -3.4e-06,-0.304548 0.106831,-0.609096 0.32287,-0.825112 l 1.4709,-1.435 -1.4709,-1.4709 c -0.241928,-0.223432 -0.348022,-0.538691 -0.32287,-0.860987 Z "/>
</svg>
