<svg enable-background="new" height="48" width="48" xmlns="http://www.w3.org/2000/svg"><g fill="#dedede" transform="matrix(1.4999887 0 0 1.4999887 -863.96749 -1145.2192)"><path d="m590.02939 773.13729c-.81437-.7694-1.38897-1.7891-1.62526-2.88425-.2363-1.09514-.13329-2.26104.29137-3.29779s1.16915-1.9399 2.10581-2.55459 2.06149-.93829 3.1816-.91531c1.05715.0217 2.1062.35108 2.986.9376.87979.58651 1.58736 1.42815 2.014 2.39563l9 2.00001h-10.82845c-.60283-.99501-1.64039-1.71583-2.7832-1.93359-.78578-.14973-1.61441-.0668-2.35494.23565-.74053.30246-1.39027.82337-1.84654 1.4804-.45626.65702-.71741 1.44779-.74215 2.24732-.0248.79953.187 1.60494.60176 2.28892"/><g transform="matrix(.12018167 0 0 .1200873 457.60196 570.49248)"><path d="m1109.8277 1715.3593-108.1695-91.6c-10.65928 11.0168-16.77082 26.3076-16.64152 41.6364.13113 15.5453 6.68678 30.9394 17.80352 41.8064 11.1168 10.867 26.6558 17.0713 42.2001 16.8492-8.5449-1.178-16.646-5.3565-22.5596-11.6359-5.9137-6.2794-9.5989-14.6165-10.2626-23.2166-.6416-8.3148 1.5391-16.8222 6.1015-23.8031z"/><path d="m1101.507 1740.3412-108.16958-33.3091c-2.89063 11.0071-2.00508 22.969 2.47486 33.4305 4.47992 10.4614 12.52632 19.3569 22.48732 24.8604 7.6018 4.2 16.2773 6.4373 24.9622 6.4373s17.3604-2.2373 24.9622-6.4373c-6.9916.631-14.1373-.5277-20.5712-3.3359-6.4339-2.8081-12.1424-7.2597-16.4338-12.8153-4.9547-6.4144-7.9929-14.2903-8.6296-22.3704z"/></g><path d="m596.02149 772.15231c-.55774.65831-.92265 1.47805-1.03858 2.33304-.10946.8073-.00012 1.6321.21372 2.41822.21385.78612.53033 1.53985.84297 2.29217.31263.75231.62335 1.50891.8249 2.29827.20154.78936.29157 1.61778.15696 2.42127-.22515 1.34391-1.08188 2.53858-2.20014 3.31722-1.11826.77865-2.47867 1.16405-3.83841 1.25285-1.71571.11205-3.45936-.23668-5-1l.0386 8 2-3.9785c2.64226.77198 5.59962.39253 7.9614-1.0215 1.19168-.71348 2.23863-1.68553 2.96915-2.86684s1.13521-2.57515 1.06945-3.96253c-.0937-1.97631-1.10119-3.77682-2.06587-5.50423-.96469-1.72741-1.93693-3.55781-1.94913-5.5363-.00095-.15462.004-.30927.015-.4635z"/></g></svg>
