<?xml version="1.0" encoding="UTF-8" standalone="no"?>
<!-- Created with Inkscape (http://www.inkscape.org/) -->

<svg
   xmlns:dc="http://purl.org/dc/elements/1.1/"
   xmlns:cc="http://creativecommons.org/ns#"
   xmlns:rdf="http://www.w3.org/1999/02/22-rdf-syntax-ns#"
   xmlns:svg="http://www.w3.org/2000/svg"
   xmlns="http://www.w3.org/2000/svg"
   xmlns:sodipodi="http://sodipodi.sourceforge.net/DTD/sodipodi-0.dtd"
   xmlns:inkscape="http://www.inkscape.org/namespaces/inkscape"
   id="svg2"
   version="1.1"
   inkscape:version="0.48.4 r9939"
   width="96"
   height="96"
   sodipodi:docname="mainmenu.svg">
  <metadata
     id="metadata8">
    <rdf:RDF>
      <cc:Work
         rdf:about="">
        <dc:format>image/svg+xml</dc:format>
        <dc:type
           rdf:resource="http://purl.org/dc/dcmitype/StillImage" />
        <dc:title />
      </cc:Work>
    </rdf:RDF>
  </metadata>
  <defs
     id="defs6" />
  <sodipodi:namedview
     pagecolor="#ffffff"
     bordercolor="#666666"
     borderopacity="1"
     objecttolerance="10"
     gridtolerance="10"
     guidetolerance="10"
     inkscape:pageopacity="0"
     inkscape:pageshadow="2"
     inkscape:window-width="1366"
     inkscape:window-height="712"
     id="namedview4"
     showgrid="false"
     inkscape:zoom="2.4583333"
     inkscape:cx="-12.20339"
     inkscape:cy="47.999999"
     inkscape:window-x="-2"
     inkscape:window-y="-3"
     inkscape:window-maximized="1"
     inkscape:current-layer="svg2" />
  <path
     sodipodi:nodetypes="scccccsccccccsccccccsccccccsccccccscccccccscccccccscccccccsccccccccccccssssss"
     inkscape:connector-curvature="0"
     style="fill:#ffffff;fill-opacity:1;stroke:none"
     d="m 9.3100636,14.584922 c -0.268144,4.643148 0.374791,6.28187 1.2605784,8.478515 0,-0.0031 0,-0.0031 0.03352,0 l 2.92642,-1.195068 c 0.07618,-0.03352 0.158449,-0.05181 0.234626,-0.06399 0,0 0.03352,0 0.0457,0 0.425983,-0.0457 0.859278,0.27119 0.94673,0.691384 0.08836,0.419278 -0.182826,0.882435 -0.59144,1.011936 l -2.908443,1.185926 c 0.899805,2.075978 1.894373,4.076086 2.96969,6.002758 0,0 0,0 0.03352,0 l 3.534009,-1.858113 c 0.121882,-0.06703 0.255956,-0.103599 0.391856,-0.112748 0.397644,-0.03352 0.788584,0.27119 0.88792,0.655123 0.100554,0.385151 -0.100554,0.826979 -0.459804,1.002797 L 15.1175,32.223575 c 1.078669,1.816978 2.22803,3.562044 3.452044,5.228495 0,0 0,0 0.03352,0 l 3.342958,-2.359359 c 0.134076,-0.09751 0.295566,-0.152354 0.46468,-0.161496 0.376314,-0.03352 0.749887,0.237674 0.870247,0.594183 0.121882,0.357117 -0.03352,0.786147 -0.333046,0.999443 l -3.306697,2.341381 c 1.257532,1.61465 2.587585,3.147029 3.971571,4.599879 0,0 0,0 0.03352,-0.03352 l 3.069938,-2.76005 c 0.143211,-0.134076 0.333046,-0.213296 0.528061,-0.228531 0.364127,-0.03352 0.734957,0.195013 0.876951,0.531107 0.140166,0.336398 0.0457,0.758724 -0.231579,0.999139 l -3.042514,2.732626 c 1.525676,1.509831 3.122044,2.918498 4.772954,4.226307 l 2.423042,-3.269828 c 0.146256,-0.207201 0.386065,-0.342797 0.637755,-0.364431 0.03352,-6.09e-4 0.06094,-6.09e-4 0.09142,0 0.319943,0 0.62709,0.204154 0.765427,0.495457 0.137121,0.286426 0.100554,0.652379 -0.09142,0.907117 l -2.432183,3.297555 c 1.710634,1.270025 3.474897,2.433707 5.292482,3.479466 -1.831298,10.219619 2.778028,20.943531 12.287981,26.433769 l 0,0 c 3.392929,1.908389 7.465969,1.958057 10.720865,0.382715 l -3.415783,-1.694484 c -0.338836,-0.15845 -0.54817,-0.557618 -0.489057,-0.927839 0.0579,-0.370221 0.38119,-0.682546 0.753239,-0.729776 0.03352,0 0.06094,0 0.09142,0 0.143211,-0.0025 0.289472,0.03657 0.41867,0.100553 l 3.971571,1.976645 c 0.140166,0.06094 0.265095,0.161496 0.355289,0.280332 1.085068,-0.780053 2.046423,-1.757864 2.824039,-2.923984 L 59.92612,74.445204 c -0.354987,-0.16759 -0.567064,-0.591439 -0.485402,-0.974763 0.08227,-0.383323 0.448836,-0.685594 0.840387,-0.691992 0.143211,-0.0028 0.289472,0.03352 0.419279,0.100553 l 3.980407,1.967198 c 0,-6.09e-4 0,9.15e-4 0,0 0.512824,-1.099693 0.83094,-2.244177 0.974763,-3.397195 -0.106644,0 -0.213297,-0.04266 -0.310194,-0.09142 L 61.3744,69.389778 c -0.354987,-0.16759 -0.567673,-0.591439 -0.485707,-0.974763 0.08227,-0.383323 0.44914,-0.685594 0.840692,-0.691992 0.14321,0 0.289472,0.03352 0.418974,0.0914 l 3.597997,1.785288 c -0.143211,-3.80977 -2.191768,-7.456218 -5.729129,-9.491366 L 61.255878,57.958633 72.450564,39.56795 86.751449,37.828065 72.778735,36.306959 c -3.170492,-2.552238 -7.415386,-3.665947 -11.213273,-3.707388 -0.280332,0 -0.567062,0 -0.84709,0 -4.558439,0.100553 -9.02699,1.43731 -12.907148,3.86218 C 34.066412,31.33932 21.558127,23.022606 9.3591206,14.602595 z M 67.346067,36.243909 c 0.91047,0 1.648777,0.738308 1.648777,1.648778 0,0.910772 -0.738307,1.648777 -1.648777,1.648777 -0.91047,0 -1.648778,-0.738005 -1.648778,-1.648777 0,-0.91047 0.738308,-1.648778 1.648778,-1.648778 z"
     id="path4898" />
</svg>
