<?xml version="1.0" encoding="UTF-8"?>
<svg version="1.1" viewBox="0 0 16 16" xmlns="http://www.w3.org/2000/svg" xmlns:cc="http://creativecommons.org/ns#" xmlns:dc="http://purl.org/dc/elements/1.1/" xmlns:rdf="http://www.w3.org/1999/02/22-rdf-syntax-ns#">
 <g transform="matrix(1.148 0 0 1.148 -47.103 -595.84)">
  <path d="m48 519.03c-3.8533 0-6.9688 3.1155-6.9688 6.9688 0 3.8533 3.1155 6.9688 6.9688 6.9688s6.9688-3.1155 6.9688-6.9688c0-3.8533-3.1155-6.9688-6.9688-6.9688zm-3 3.9688h1c0.01037-1.2e-4 0.02079-4.6e-4 0.03125 0 0.25495 0.0112 0.50987 0.12858 0.6875 0.3125l1.2812 1.2812 1.3125-1.2812c0.26562-0.2305 0.44667-0.3055 0.6875-0.3125h1v1c0 0.28647-0.03434 0.55065-0.25 0.75l-1.2812 1.2812 1.25 1.25c0.18819 0.18817 0.28124 0.45345 0.28125 0.71875v1h-1c-0.2653-1e-5 -0.53059-0.0931-0.71875-0.28125l-1.2812-1.2812-1.2812 1.2812c-0.18816 0.18819-0.45346 0.28125-0.71875 0.28125h-1v-1c-3e-6 -0.26529 0.09306-0.53058 0.28125-0.71875l1.2812-1.25-1.2812-1.2812c-0.21074-0.19463-0.30316-0.46925-0.28125-0.75z" color="#141414" fill="#141414"/>
 </g>
</svg>
