<svg enable-background="new" height="51.2" viewBox="0 0 48 48" width="51.2" xmlns="http://www.w3.org/2000/svg"><g fill="#302e26"><path d="m21.06989 14.47795c-1.22154-1.1541-2.08343-2.68363-2.43788-4.32633-.35444-1.64271-.2-3.39155.43707-4.94666.63698-1.5551 1.7537-2.90982 3.15868-3.83185 1.40499-.92203 3.09221-1.40743 4.77236-1.37296 1.58572.0325 3.15927.52662 4.47896 1.40638 1.31969.87977 2.38103 2.14221 3.02099 3.59342l13.5 3h-16.2426c-.90424-1.4925-2.46056-2.57373-4.17477-2.90037-1.17866-.22459-2.4216-.09958-3.53238.35348-1.11079.45368-2.08539 1.23504-2.76979 2.22057s-1.07611 2.17168-1.11322 3.37097c-.0371 1.19929.2805 2.40738.90264 3.43335z" fill="#636343"/><path d="m22.5002 19.5001-19.4998-16.5c-1.92104 1.98396-3.02283 4.73843-3 7.5.0232 2.80174 1.20512 5.57633 3.20947 7.5341 2.00434 1.95778 4.80594 3.0742 7.60745 3.03151-1.54011-.21095-3-.9631-4.06683-2.09434-1.06618-1.13124-1.7306-2.63373-1.85006-4.18362-.11545-1.49785.27769-3.03034 1.1-4.28765z" fill="#848e5f"/><path d="m21 24-19.5-6c-.51939 1.98311-.35886 4.1377.44868 6.02195.80753 1.88424 2.25703 3.48641 4.05128 4.47797 1.37033.75729 2.93431 1.16069 4.5 1.16069 1.56566 0 3.12964-.4034 4.5-1.16069-1.2602.11426-2.54833-.0942-3.70819-.6-1.15968-.50579-2.18886-1.30798-2.96255-2.30926-.89277-1.15538-1.44045-2.57401-1.55567-4.02957z" fill="#c4d295"/><path d="m30.058 13c-.8366.98746-1.38397 2.21706-1.55786 3.49953-.16419 1.21094 0 2.44813.32058 3.6273.32076 1.17917.79549 2.30977 1.26443 3.43823.46895 1.12846.93503 2.26335 1.23734 3.44738.30232 1.18404.43737 2.42666.23545 3.63188-.33773 2.01585-1.6228 3.80784-3.30018 4.9758-1.67737 1.16796-3.71797 1.74605-5.75757 1.87926-2.57355.16808-5.18901-.35501-7.5-1.5l.0579 12 3-5.9677c3.96336 1.15797 8.39937.5888 11.942-1.53224 1.78751-1.07021 3.35792-2.52828 4.45369-4.30023 1.09577-1.77196 1.70279-3.86269 1.60416-5.94375-.1405-2.96444-1.65177-5.66519-3.09879-8.25629-1.44702-2.59109-2.90537-5.33667-2.92366-8.30438-.001-.23192.006-.4639.0225-.69524z" fill="#a7a990"/></g></svg>