<svg width="48" version="1.1" xmlns="http://www.w3.org/2000/svg" height="48" style="enable-background:new">
<g style="fill:#999a9a">
<path d="m 21.0699,14.478 c -1.22155,-1.15409 -2.08344,-2.68363 -2.43787,-4.32634 -0.354447,-1.6427 -0.199933,-3.39153 0.437052,-4.94665 0.636985,-1.55511 1.75371,-2.90983 3.15869,-3.83186 1.40498,-0.922028 3.09221,-1.40742 4.77236,-1.37295 1.58571,0.0325498 3.15928,0.526616 4.47897,1.40639 1.31968,0.879758 2.38102,2.14221 3.02098,3.59342 l 13.4999,3 h -16.2425 c -0.904238,-1.4925 -2.46057,-2.57373 -4.17477,-2.90036 -1.17866,-0.224593 -2.4216,-0.100199 -3.53238,0.353472 -1.11079,0.453687 -2.08539,1.23505 -2.76979,2.22058 -0.684385,0.985523 -1.07611,2.17167 -1.11322,3.37095 -0.0372,1.19929 0.280498,2.40739 0.902634,3.43336 z "/>
<path d="m 22.5002,19.5 -19.4998,-16.4999 c -1.92156,1.98445 -3.02329,4.73878 -2.99998,7.49995 0.023639,2.80017 1.20543,5.5731 3.20946,7.53057 2.00404,1.95747 4.80527,3.07505 7.60746,3.03504 -1.5404,-0.212193 -3,-0.964864 -4.06684,-2.09597 -1.06607,-1.13111 -1.7304,-2.63286 -1.85005,-4.182 -0.115662,-1.49774 0.277455,-3.03018 1.09992,-4.28764 Z "/>
<path d="m 21,24 -19.4999,-6 c -0.521097,1.9827 -0.361458,4.1374 0.446146,6.02182 0.807604,1.88441 2.25814,3.48675 4.05382,4.47809 1.37039,0.756544 2.93433,1.15955 4.49996,1.15955 1.56564,0 3.12958,-0.403004 4.49997,-1.15955 -1.26038,0.113662 -2.54855,-0.09505 -3.70839,-0.600894 -1.15985,-0.505822 -2.18892,-1.30769 -2.96254,-2.30842 -0.893189,-1.15542 -1.44089,-2.57411 -1.55567,-4.02957 Z "/>
<path d="m 30.058,13 c -0.836604,0.987457 -1.38396,2.21706 -1.55786,3.49953 -0.164189,1.21094 0,2.44813 0.320577,3.6273 0.320773,1.17917 0.795489,2.30976 1.26445,3.43823 0.468941,1.12846 0.935018,2.26335 1.23734,3.44738 0.302308,1.18403 0.437352,2.42665 0.235439,3.63188 -0.337723,2.01585 -1.62281,3.80784 -3.30018,4.97579 -1.67738,1.16797 -3.71798,1.74606 -5.75757,1.87926 -2.57355,0.168074 -5.189,-0.355017 -7.49994,-1.49999 l .0579,11.9999 3,-5.9677 c 3.96336,1.15796 8.39937,0.588791 11.942,-1.53224 1.78751,-1.07021 3.35792,-2.52828 4.45369,-4.30023 1.09577,-1.77195 1.7028,-3.8627 1.60416,-5.94375 -0.140549,-2.96444 -1.65177,-5.66519 -3.09878,-8.25628 -1.44702,-2.5911 -2.90537,-5.33667 -2.92367,-8.30439 -0.0014,-0.231928 0.006,-0.463901 0.0225,-0.695244 v 0 z "/>
</g>
</svg>
