<svg viewBox="0 0 16.000001 16.000001" xmlns="http://www.w3.org/2000/svg"><path d="m48 519.03125c-3.85327 0-6.96875 3.11547-6.96875 6.96875 0 3.85327 3.11548 6.96875 6.96875 6.96875s6.96875-3.11548 6.96875-6.96875c0-3.85328-3.11548-6.96875-6.96875-6.96875zm-3 3.96875h1c.01037-.00012.02079-.00046.03125 0 .254951.0112.50987.12858.6875.3125l1.28125 1.28125 1.3125-1.28125c.265625-.2305.446672-.3055.6875-.3125h1v1c0 .28647-.03434.55065-.25.75l-1.28125 1.28125 1.25 1.25c.188188.18817.281242.45345.28125.71875v1h-1c-.265301-.00001-.530586-.0931-.71875-.28125l-1.28125-1.28125-1.28125 1.28125c-.188164.18819-.45346.28125-.71875.28125h-1v-1c-.000003-.26529.09306-.53058.28125-.71875l1.28125-1.25-1.28125-1.28125c-.210742-.19463-.30316-.46925-.28125-.75z" fill="#dedede" transform="matrix(1.1479821 0 0 1.1479821 -47.103141 -595.83858)"/></svg>