<svg width="16.25" version="1.1" xmlns="http://www.w3.org/2000/svg" height="26" viewBox="0 0 16.25 26">
<path style="fill:#cbd3cb;stroke-width:1.625" d="m 8.125,-0 c -1.58097,5.53313 -5.45098,10.29 -7.15699,14.0982 -0.597032,1.1323 -0.968017,2.40305 -0.968017,3.77682 1.52839e-17,4.50125 3.62375,8.125 8.125,8.125 4.50125,0 8.125,-3.62375 8.125,-8.125 0,-1.37377 -0.370986,-2.64452 -0.968017,-3.77683 -1.70601,-3.80819 -5.57603,-8.56505 -7.15699,-14.0982 Z  m 3.7102,12.5398 c 1.68626,1.17195 2.7898,3.11724 2.7898,5.3352 0,3.601 -2.899,6.5 -6.5,6.5 -2.21806,0 -4.16325,-1.10337 -5.3352,-2.7898 1.05145,0.730763 2.32719,1.1648 3.7102,1.1648 3.601,0 6.5,-2.899 6.5,-6.5 0,-1.38304 -0.434026,-2.65883 -1.16479,-3.7102 z "/>
</svg>
