<svg width="51.2" version="1.1" xmlns="http://www.w3.org/2000/svg" viewBox="0 0 48 48" height="51.2" style="enable-background:new">
<g style="fill:#262630">
<path d="m 21.06989,14.47795 c -1.22154,-1.1541 -2.08343,-2.68363 -2.43788,-4.32633 -0.35444,-1.64271 -0.2,-3.39155 0.43707,-4.94666 0.63698,-1.5551 1.7537,-2.90982 3.15868,-3.83185 1.40499,-0.92203 3.09221,-1.40743 4.77236,-1.37296 1.58572,0.0325 3.15927,0.52662 4.47896,1.40638 1.31969,0.87977 2.38103,2.14221 3.02099,3.59342 l 13.5,3 H 31.75747 C 30.85323,6.50745 29.29691,5.42622 27.5827,5.09958 26.40404,4.87499 25.1611,5 24.05032,5.45306 22.93953,5.90674 21.96493,6.6881 21.28053,7.67363 c -0.6844,0.98553 -1.07611,2.17168 -1.11322,3.37097 -0.0371,1.19929 0.2805,2.40738 0.90264,3.43335 z"/>
<path d="m 22.5002,19.5001 -19.4998,-16.5 c -1.92104,1.98396 -3.02283,4.73843 -3,7.5 0.0232,2.80174 1.20512,5.57633 3.20947,7.5341 2.00434,1.95778 4.80594,3.0742 7.60745,3.03151 -1.54011,-0.21095 -3,-0.9631 -4.06683,-2.09434 -1.06618,-1.13124 -1.7306,-2.63373 -1.85006,-4.18362 -0.11545,-1.49785 0.27769,-3.03034 1.1,-4.28765 z "/>
<path d="m 21,24 -19.5,-6 c -0.51939,1.98311 -0.35886,4.1377 0.44868,6.02195 0.80753,1.88424 2.25703,3.48641 4.05128,4.47797 1.37033,0.75729 2.93431,1.16069 4.5,1.16069 1.56566,0 3.12964,-0.4034 4.5,-1.16069 -1.2602,0.11426 -2.54833,-0.0942 -3.70819,-0.6 C 10.13209,27.39413 9.10291,26.59194 8.32922,25.59066 7.43645,24.43528 6.88877,23.01665 6.77355,21.56109 Z"/>
<path d="m 30.058,13 c -0.8366,0.98746 -1.38397,2.21706 -1.55786,3.49953 -0.16419,1.21094 0,2.44813 0.32058,3.6273 0.32076,1.17917 0.79549,2.30977 1.26443,3.43823 0.46895,1.12846 0.93503,2.26335 1.23734,3.44738 0.30232,1.18404 0.43737,2.42666 0.23545,3.63188 -0.33773,2.01585 -1.6228,3.80784 -3.30018,4.9758 -1.67737,1.16796 -3.71797,1.74605 -5.75757,1.87926 -2.57355,0.16808 -5.18901,-0.35501 -7.5,-1.5 l .0579,12 3,-5.9677 c 3.96336,1.15797 8.39937,0.5888 11.942,-1.53224 1.78751,-1.07021 3.35792,-2.52828 4.45369,-4.30023 1.09577,-1.77196 1.70279,-3.86269 1.60416,-5.94375 -0.1405,-2.96444 -1.65177,-5.66519 -3.09879,-8.25629 -1.44702,-2.59109 -2.90537,-5.33667 -2.92366,-8.30438 -0.001,-0.23192 0.006,-0.4639 0.0225,-0.69524 z "/>
</g>
</svg>
